<svg width="28" height="28" viewBox="0 0 28 28" fill="none" xmlns="http://www.w3.org/2000/svg">
<path d="M27.4286 13.7143C27.4286 6.14009 21.2885 0 13.7143 0C6.14009 0 0 6.14009 0 13.7143C0 21.2885 6.14009 27.4286 13.7143 27.4286C21.2885 27.4286 27.4286 21.2885 27.4286 13.7143Z" fill="#FC3F1D"/>
<path d="M15.6469 21.9567H18.512V5.49951H14.3445C10.1532 5.49951 7.951 7.65437 7.951 10.8274C7.951 13.3611 9.15865 14.8529 11.3135 16.392L7.57214 21.9567H10.6742L14.8417 15.729L13.3973 14.7581C11.6451 13.5741 10.7926 12.6507 10.7926 10.6616C10.7926 8.90934 12.0239 7.72534 14.3681 7.72534H15.6469V21.9567Z" fill="white"/>
</svg>
