<svg width="190" height="30" viewBox="0 0 190 30" fill="none" xmlns="http://www.w3.org/2000/svg">
<path d="M15 0L18.3677 10.3647H29.2658L20.4491 16.7705L23.8168 27.1353L15 20.7295L6.18322 27.1353L9.55093 16.7705L0.734152 10.3647H11.6323L15 0Z" fill="#8F49A0"/>
<path d="M55 0L58.3677 10.3647H69.2658L60.4491 16.7705L63.8168 27.1353L55 20.7295L46.1832 27.1353L49.5509 16.7705L40.7342 10.3647H51.6323L55 0Z" fill="#8F49A0"/>
<path d="M95 0L98.3677 10.3647H109.266L100.449 16.7705L103.817 27.1353L95 20.7295L86.1832 27.1353L89.5509 16.7705L80.7342 10.3647H91.6323L95 0Z" fill="#8F49A0"/>
<path d="M135 0L138.368 10.3647H149.266L140.449 16.7705L143.817 27.1353L135 20.7295L126.183 27.1353L129.551 16.7705L120.734 10.3647H131.632L135 0Z" fill="#8F49A0"/>
<path d="M175 0L178.368 10.3647H189.266L180.449 16.7705L183.817 27.1353L175 20.7295L166.183 27.1353L169.551 16.7705L160.734 10.3647H171.632L175 0Z" fill="#8F49A0"/>
</svg>
