<svg width="60" height="60" viewBox="0 0 60 60" fill="none" xmlns="http://www.w3.org/2000/svg">
<circle opacity="0.2" cx="30" cy="30" r="30" fill="#2E90D1"/>
<path d="M46.8167 25.9834L45.15 25.0667L30.15 16.7334H29.9667C29.8645 16.6902 29.7585 16.6567 29.65 16.6334H29.3333H29.0333C28.9195 16.6567 28.8079 16.6902 28.7 16.7334H28.5167L13.5167 25.0667C13.2602 25.2121 13.0468 25.4229 12.8984 25.6776C12.75 25.9323 12.6718 26.2219 12.6718 26.5167C12.6718 26.8115 12.75 27.1011 12.8984 27.3558C13.0468 27.6105 13.2602 27.8213 13.5167 27.9667L17.6667 30.2667V38.1667C17.6667 39.4928 18.1935 40.7645 19.1311 41.7022C20.0688 42.6399 21.3406 43.1667 22.6667 43.1667H36C37.3261 43.1667 38.5979 42.6399 39.5355 41.7022C40.4732 40.7645 41 39.4928 41 38.1667V30.2667L44.3333 28.4V33.1667C44.3333 33.6087 44.5089 34.0326 44.8215 34.3452C45.134 34.6578 45.558 34.8334 46 34.8334C46.442 34.8334 46.866 34.6578 47.1785 34.3452C47.4911 34.0326 47.6667 33.6087 47.6667 33.1667V27.4334C47.6662 27.138 47.5872 26.8481 47.4378 26.5934C47.2885 26.3386 47.0741 26.1281 46.8167 25.9834ZM37.6667 38.1667C37.6667 38.6087 37.4911 39.0326 37.1785 39.3452C36.866 39.6578 36.442 39.8334 36 39.8334H22.6667C22.2246 39.8334 21.8007 39.6578 21.4882 39.3452C21.1756 39.0326 21 38.6087 21 38.1667V32.1167L28.5167 36.2834L28.7667 36.3834H28.9167C29.055 36.4008 29.195 36.4008 29.3333 36.3834C29.4717 36.4008 29.6117 36.4008 29.75 36.3834H29.9C29.9885 36.3647 30.0731 36.3309 30.15 36.2834L37.6667 32.1167V38.1667ZM29.3333 32.9334L17.7667 26.5L29.3333 20.0667L40.9 26.5L29.3333 32.9334Z" fill="#2E90D1"/>
</svg>
