<svg width="60" height="60" viewBox="0 0 60 60" fill="none" xmlns="http://www.w3.org/2000/svg">
<circle opacity="0.2" cx="30" cy="30" r="30" fill="#78258D"/>
<path d="M17.43 37.92C17.5772 38.29 17.8653 38.5863 18.231 38.7439C18.5967 38.9014 19.01 38.9072 19.38 38.76C19.75 38.6128 20.0463 38.3247 20.2038 37.959C20.3614 37.5933 20.3672 37.18 20.22 36.81L18.54 32.58L28.5 30.375V37.5C28.5 37.8978 28.658 38.2794 28.9393 38.5607C29.2206 38.842 29.6022 39 30 39C30.3978 39 30.7793 38.842 31.0606 38.5607C31.342 38.2794 31.5 37.8978 31.5 37.5V30.375L41.46 32.58L39.78 36.81C39.7069 36.9932 39.6707 37.189 39.6734 37.3862C39.6761 37.5833 39.7176 37.7781 39.7956 37.9592C39.8736 38.1403 39.9866 38.3043 40.1281 38.4417C40.2695 38.5791 40.4367 38.6873 40.62 38.76C40.7967 38.8298 40.985 38.8655 41.175 38.865C41.4754 38.8653 41.769 38.7754 42.0177 38.6069C42.2664 38.4384 42.4588 38.1991 42.57 37.92L44.895 32.055C44.9748 31.8521 45.0094 31.6343 44.9965 31.4167C44.9835 31.1991 44.9233 30.987 44.82 30.795C44.7198 30.6037 44.5794 30.4364 44.4086 30.3044C44.2377 30.1723 44.0403 30.0787 43.83 30.03L39 28.965V22.5C39 22.1022 38.842 21.7206 38.5606 21.4393C38.2793 21.158 37.8978 21 37.5 21H34.5V16.5C34.5 16.1022 34.342 15.7206 34.0606 15.4393C33.7793 15.158 33.3978 15 33 15H27C26.6022 15 26.2206 15.158 25.9393 15.4393C25.658 15.7206 25.5 16.1022 25.5 16.5V21H22.5C22.1022 21 21.7206 21.158 21.4393 21.4393C21.158 21.7206 21 22.1022 21 22.5V28.965L16.17 30C15.9596 30.0487 15.7623 30.1423 15.5914 30.2744C15.4206 30.4064 15.2802 30.5737 15.18 30.765C15.0767 30.957 15.0165 31.1691 15.0035 31.3867C14.9905 31.6043 15.0252 31.8221 15.105 32.025L17.43 37.92ZM28.5 18H31.5V21H28.5V18ZM24 24H36V28.29L30.33 27H30.18H30H29.82H29.67L24 28.29V24ZM43.065 40.92C42.5387 41.0813 42.0347 41.3081 41.565 41.595C41.0871 41.8744 40.5435 42.0217 39.99 42.0217C39.4364 42.0217 38.8928 41.8744 38.415 41.595C37.3759 41.0088 36.203 40.7008 35.01 40.7008C33.8169 40.7008 32.6441 41.0088 31.605 41.595C31.1206 41.8712 30.5726 42.0165 30.015 42.0165C29.4574 42.0165 28.9094 41.8712 28.425 41.595C27.385 41.0116 26.2125 40.7052 25.02 40.7052C23.8275 40.7052 22.655 41.0116 21.615 41.595C21.1371 41.8744 20.5935 42.0217 20.04 42.0217C19.4864 42.0217 18.9428 41.8744 18.465 41.595C17.9952 41.3081 17.4913 41.0813 16.965 40.92C16.7654 40.849 16.553 40.8212 16.3419 40.8382C16.1308 40.8552 15.9256 40.9168 15.74 41.0188C15.5544 41.1208 15.3924 41.261 15.2649 41.4301C15.1373 41.5993 15.0471 41.7935 15 42C14.888 42.3799 14.9308 42.7887 15.1191 43.1371C15.3074 43.4856 15.6258 43.7455 16.005 43.86C16.307 43.9418 16.5952 44.0682 16.86 44.235C17.77 44.769 18.8048 45.0536 19.86 45.06C20.9559 45.0602 22.0323 44.7704 22.98 44.22C23.5679 43.8957 24.2285 43.7255 24.9 43.7255C25.5715 43.7255 26.232 43.8957 26.82 44.22C27.7609 44.758 28.8261 45.0411 29.91 45.0411C30.9939 45.0411 32.059 44.758 33 44.22C33.5879 43.8957 34.2485 43.7255 34.92 43.7255C35.5915 43.7255 36.252 43.8957 36.84 44.22C37.7697 44.7749 38.8323 45.0679 39.915 45.0679C40.9977 45.0679 42.0603 44.7749 42.99 44.22C43.2548 44.0532 43.5429 43.9268 43.845 43.845C44.0446 43.8046 44.2339 43.724 44.4014 43.6081C44.5688 43.4922 44.7109 43.3433 44.819 43.1707C44.927 42.9981 44.9988 42.8053 45.0299 42.604C45.0611 42.4027 45.0509 42.1972 45 42C44.9523 41.797 44.8628 41.6062 44.7373 41.4397C44.6117 41.2732 44.4528 41.1347 44.2708 41.0331C44.0887 40.9315 43.8874 40.8689 43.6798 40.8495C43.4722 40.83 43.2628 40.854 43.065 40.92Z" fill="#78258D"/>
</svg>
