<svg width="599" height="577" viewBox="0 0 599 577" fill="none" xmlns="http://www.w3.org/2000/svg">
<path opacity="0.05" fill-rule="evenodd" clip-rule="evenodd" d="M-7.64398 65.6116C58.0132 24.3126 140.788 1.43175 226.49 0.891698C312.192 0.351601 395.483 22.1859 462.084 62.6515C528.685 103.117 574.448 159.693 591.526 222.681C608.605 285.669 595.936 351.145 555.692 407.884C533.664 438.941 523.015 433.246 526.495 469.948L563.369 552.975C571.449 571.176 548.48 581.896 527.297 572.85L428.383 530.584C388.382 523.067 388.656 529.503 351.159 539.288C269.601 560.565 180.672 559.729 99.8361 536.926C19.0004 514.123 -48.6279 470.795 -91.2878 414.477C-133.948 358.159 -148.94 292.414 -133.658 228.676C-118.377 164.938 -73.787 107.238 -7.64398 65.6116Z" fill="#2E90D1"/>
</svg>
